<?xml version="1.0" standalone="no"?>
<!DOCTYPE svg PUBLIC "-//W3C//DTD SVG 20010904//EN"
 "http://www.w3.org/TR/2001/REC-SVG-20010904/DTD/svg10.dtd">
<svg version="1.0" xmlns="http://www.w3.org/2000/svg"
 width="360.000000pt" height="360.000000pt" viewBox="0 0 360.000000 360.000000"
 preserveAspectRatio="xMidYMid meet">

<g transform="translate(0.000000,360.000000) scale(0.100000,-0.100000)"
fill="#000000" stroke="none">
<path d="M320 3175 l0 -104 103 -3 102 -3 3 -335 2 -335 -72 -23 c-136 -44
-287 -124 -397 -210 l-24 -19 68 -81 68 -81 36 27 c259 200 630 265 946 165
350 -110 618 -392 710 -747 24 -91 35 -219 35 -403 l0 -173 221 -2 222 -3 16
-60 c62 -225 256 -401 496 -451 262 -54 553 91 674 336 93 190 94 379 1 567
-22 45 -63 106 -90 136 l-50 55 0 209 c0 235 -9 292 -63 382 -41 68 -104 123
-186 164 -64 30 -71 32 -223 35 l-158 4 0 285 0 285 29 29 c16 16 39 29 50 29
20 0 21 5 21 109 l0 108 -49 -8 c-99 -15 -184 -78 -228 -167 l-28 -57 -5 -305
-5 -305 -231 -3 -231 -2 -122 407 c-67 225 -124 416 -127 426 -5 15 3 17 80
17 l86 0 0 105 0 105 -840 0 -840 0 0 -105z m1294 -122 c3 -10 59 -199 125
-420 67 -221 121 -404 121 -407 0 -4 -70 -6 -157 -6 l-156 0 -76 44 c-186 108
-402 166 -622 166 l-109 0 0 320 0 320 434 0 c405 0 435 -1 440 -17z m1468
-1078 c23 -17 54 -51 68 -75 23 -41 25 -57 28 -194 l4 -149 -34 7 c-106 23
-188 26 -630 26 -357 0 -488 3 -488 11 0 7 -20 53 -44 104 -44 94 -102 186
-164 263 l-35 43 626 -3 625 -3 44 -30z m-592 -600 c0 -3 -15 -24 -33 -47 -37
-49 -85 -152 -102 -218 l-11 -45 -116 -3 -115 -3 -6 138 c-3 76 -9 148 -13
161 l-6 22 201 0 c110 0 201 -2 201 -5z m575 -10 c120 -32 224 -115 279 -223
126 -249 -37 -562 -314 -601 -187 -25 -364 69 -443 237 -30 63 -32 74 -32 177
0 103 2 114 31 176 57 119 151 199 273 231 83 21 131 22 206 3z"/>
<path d="M2901 1034 c-58 -48 -47 -135 20 -170 43 -22 91 -11 123 27 82 97
-46 225 -143 143z"/>
<path d="M725 2004 c-225 -37 -435 -164 -561 -341 -282 -394 -185 -932 217
-1199 93 -61 187 -99 313 -125 312 -65 660 82 846 356 179 264 194 608 38 885
-106 190 -310 347 -523 405 -60 16 -272 28 -330 19z m250 -219 c230 -48 423
-234 481 -465 22 -85 22 -226 0 -309 -49 -183 -170 -329 -341 -411 -101 -48
-163 -62 -273 -62 -303 1 -555 208 -616 505 -30 145 -13 267 55 407 125 253
415 393 694 335z"/>
<path d="M745 1467 c-88 -35 -150 -93 -189 -177 -68 -146 2 -333 152 -407 46
-23 70 -28 132 -28 65 0 84 4 142 33 72 35 110 74 149 150 32 65 34 186 3 253
-54 117 -166 190 -289 188 -38 0 -83 -6 -100 -12z m171 -231 c38 -38 43 -70
19 -116 -34 -66 -121 -76 -169 -19 -58 68 -11 168 78 169 30 0 45 -7 72 -34z"/>
</g>
</svg>
