<?xml version="1.0" standalone="no"?>
<!DOCTYPE svg PUBLIC "-//W3C//DTD SVG 20010904//EN"
 "http://www.w3.org/TR/2001/REC-SVG-20010904/DTD/svg10.dtd">
<svg version="1.0" xmlns="http://www.w3.org/2000/svg"
 width="360.000000pt" height="360.000000pt" viewBox="0 0 360.000000 360.000000"
 preserveAspectRatio="xMidYMid meet">
<metadata>
Created by potrace 1.16, written by Peter Selinger 2001-2019
</metadata>
<g transform="translate(0.000000,360.000000) scale(0.100000,-0.100000)"
fill="#000000" stroke="none">
<path d="M1410 2353 c-221 -21 -501 -91 -695 -173 -85 -37 -102 -40 -330 -65
-132 -14 -248 -28 -257 -31 -12 -4 -18 -15 -18 -38 0 -25 -11 -43 -55 -86 -38
-38 -55 -62 -55 -80 0 -45 57 -316 73 -347 26 -50 91 -101 151 -118 77 -23
110 -18 114 17 3 23 -1 28 -25 33 -117 25 -161 49 -181 102 -6 16 -20 78 -32
138 -11 61 -23 118 -26 127 -5 16 7 18 128 20 l133 3 3 25 c3 22 -8 33 -82 80
-47 30 -83 56 -81 58 2 2 114 16 249 31 135 16 251 33 258 38 7 6 54 27 105
47 l92 36 24 -24 c66 -66 508 -111 1213 -123 397 -6 402 -6 415 14 12 20 13
20 44 2 18 -11 92 -30 166 -44 243 -45 315 -63 477 -117 l92 -31 0 -48 c0 -52
-4 -49 125 -92 39 -14 40 -15 43 -68 2 -42 8 -58 25 -71 l22 -17 -24 -25 c-14
-14 -21 -31 -18 -40 6 -14 -13 -16 -156 -16 -117 0 -167 -4 -176 -12 -11 -11
-12 -8 -6 12 5 14 8 53 7 87 -1 113 -73 222 -180 275 -67 33 -197 33 -264 0
-63 -31 -126 -96 -156 -160 -21 -46 -24 -65 -21 -137 3 -60 1 -81 -7 -74 -7 5
-323 8 -784 7 -709 -3 -774 -4 -783 -20 -8 -12 -7 -21 2 -32 12 -14 93 -16
787 -16 750 0 774 1 786 19 11 18 13 16 31 -17 28 -54 85 -109 141 -137 72
-36 200 -36 272 0 56 28 113 83 141 137 18 34 20 35 31 17 12 -18 25 -19 230
-17 l217 3 0 30 c0 25 -4 30 -27 33 l-28 3 30 26 c37 30 38 62 5 93 -23 22
-25 31 -25 111 l0 88 -46 32 c-132 91 -379 171 -731 239 -107 20 -162 36 -190
53 -89 56 -256 132 -378 172 -193 64 -279 75 -539 73 -122 0 -237 -3 -256 -5z
m583 -82 c128 -27 289 -81 402 -136 l90 -43 -225 -1 c-223 -1 -735 15 -777 24
-14 3 -20 10 -17 19 3 8 -9 42 -26 76 -17 34 -28 66 -23 71 25 25 439 18 576
-10z m-646 -8 c-3 -5 9 -38 27 -75 18 -38 28 -68 22 -68 -40 0 -290 33 -349
45 -40 8 -75 15 -79 15 -5 0 -8 4 -8 8 0 8 91 32 250 66 73 16 144 20 137 9z
m1598 -497 c126 -58 174 -202 111 -330 -87 -178 -345 -178 -432 1 -32 65 -36
146 -10 208 53 124 206 180 331 121z"/>
<path d="M537 1841 c-67 -27 -112 -64 -152 -124 -106 -164 -45 -370 133 -454
48 -23 63 -25 145 -21 83 4 97 8 145 37 211 132 199 434 -23 549 -68 35 -179
41 -248 13z m239 -86 c125 -78 153 -259 57 -366 -56 -62 -105 -84 -188 -83
-103 1 -173 43 -221 134 -27 51 -25 162 3 215 26 49 66 88 118 115 62 31 166
24 231 -15z"/>
</g>
</svg>
