<?xml version="1.0" standalone="no"?>
<!DOCTYPE svg PUBLIC "-//W3C//DTD SVG 20010904//EN"
 "http://www.w3.org/TR/2001/REC-SVG-20010904/DTD/svg10.dtd">
<svg version="1.0" xmlns="http://www.w3.org/2000/svg"
 width="360.000000pt" height="360.000000pt" viewBox="0 0 360.000000 360.000000"
 preserveAspectRatio="xMidYMid meet">

<g transform="translate(0.000000,360.000000) scale(0.100000,-0.100000)"
fill="#000000" stroke="none">
<path d="M1817 2244 c-116 -21 -186 -48 -351 -135 -83 -44 -167 -84 -186 -89
-19 -5 -82 -10 -140 -10 -123 0 -230 -14 -269 -35 -16 -8 -69 -23 -119 -34
-194 -42 -251 -105 -252 -272 0 -81 -1 -86 -25 -99 -14 -8 -24 -21 -23 -29 4
-18 72 -28 204 -30 l81 -1 5 48 c13 137 118 232 258 232 137 0 237 -91 256
-230 l7 -53 551 6 c303 4 577 10 609 13 50 6 57 9 57 29 0 12 7 42 15 66 61
178 290 230 424 98 36 -36 70 -101 71 -133 0 -16 6 -18 41 -13 48 6 72 25 99
81 30 62 27 174 -6 285 -31 103 -37 111 -78 111 -17 0 -38 5 -46 10 -13 8 -12
13 6 37 11 15 39 38 63 50 53 27 71 42 71 58 0 9 -17 12 -67 8 -104 -6 -105
-7 -146 -79 -25 -42 -43 -64 -52 -60 -8 3 -33 10 -57 16 -23 7 -86 29 -140 51
-116 46 -258 84 -393 104 -124 18 -363 18 -468 -1z m256 -166 l-1 -93 -166 -3
c-91 -1 -241 -1 -334 0 l-167 3 105 56 c174 94 291 126 470 128 l95 1 -2 -92z
m312 61 c93 -20 144 -36 395 -124 l95 -34 -377 0 -378 -1 0 96 0 97 83 -7 c45
-4 127 -16 182 -27z"/>
<path d="M905 1731 c-125 -56 -161 -219 -72 -326 81 -98 257 -100 329 -4 42
56 51 81 51 139 0 60 -24 119 -65 157 -57 53 -167 69 -243 34z m156 -111 c54
-39 47 -135 -12 -165 -44 -23 -83 -19 -118 14 -91 85 27 223 130 151z"/>
<path d="M2642 1733 c-18 -9 -49 -34 -68 -56 -72 -85 -71 -196 2 -277 46 -51
90 -70 161 -70 80 0 137 30 181 96 32 46 34 53 30 121 -3 60 -8 79 -33 114
-42 59 -102 89 -179 89 -36 0 -75 -7 -94 -17z m169 -119 c10 -9 21 -32 25 -51
19 -99 -96 -164 -167 -94 -48 49 -35 136 25 162 30 13 94 4 117 -17z"/>
</g>
</svg>
