<?xml version="1.0" standalone="no"?>
<!DOCTYPE svg PUBLIC "-//W3C//DTD SVG 20010904//EN"
 "http://www.w3.org/TR/2001/REC-SVG-20010904/DTD/svg10.dtd">
<svg version="1.0" xmlns="http://www.w3.org/2000/svg"
 width="360.000000pt" height="360.000000pt" viewBox="0 0 360.000000 360.000000"
 preserveAspectRatio="xMidYMid meet">
<metadata>
Created by potrace 1.16, written by Peter Selinger 2001-2019
</metadata>
<g transform="translate(0.000000,360.000000) scale(0.100000,-0.100000)"
fill="#000000" stroke="none">
<path d="M1415 2239 c-295 -27 -624 -112 -970 -251 -184 -74 -215 -90 -260
-130 -52 -45 -68 -82 -62 -138 6 -47 64 -180 79 -180 4 0 8 21 8 48 0 95 76
200 187 255 144 73 316 100 653 100 l255 1 -179 23 c-198 26 -219 34 -214 87
3 35 -13 31 278 72 139 20 230 27 365 28 202 1 246 -8 410 -84 79 -36 265
-149 265 -161 0 -3 -46 2 -102 10 l-102 16 -22 39 c-24 42 -49 59 -100 70 -23
5 -35 2 -45 -10 -19 -23 -17 -90 3 -110 22 -22 290 -50 593 -63 247 -11 383
-29 530 -73 193 -57 312 -137 397 -267 l49 -75 57 3 c31 1 61 6 65 11 12 11
-166 189 -233 232 -202 131 -403 188 -734 212 l-181 12 -110 78 c-142 100
-321 189 -448 221 -115 29 -281 38 -432 24z"/>
<path d="M907 1881 c58 -27 130 -96 159 -153 13 -26 29 -79 36 -118 10 -58 14
-67 21 -48 13 33 11 143 -3 168 -6 12 -9 25 -5 28 4 4 262 9 573 12 312 3 547
8 522 13 -25 4 -256 25 -515 47 -259 22 -540 47 -625 55 -207 20 -216 20 -163
-4z"/>
<path d="M614 1737 c-60 -29 -115 -83 -155 -152 -39 -68 -36 -76 8 -19 71 95
127 125 234 132 66 4 84 1 130 -20 54 -25 105 -67 148 -123 19 -25 18 -21 -6
25 -78 152 -230 218 -359 157z"/>
<path d="M2838 1751 c-70 -23 -149 -94 -188 -170 -28 -56 -25 -61 9 -15 34 47
63 73 116 105 34 21 53 24 130 24 75 0 98 -4 135 -23 54 -28 83 -54 121 -106
34 -46 37 -41 9 15 -29 55 -85 115 -137 146 -48 28 -146 40 -195 24z"/>
<path d="M1281 1673 c58 -96 69 -111 98 -136 18 -14 48 -29 68 -33 32 -6 884
3 890 10 1 1 -193 9 -432 18 -505 19 -481 14 -526 114 l-29 64 -46 0 -46 0 23
-37z"/>
</g>
</svg>
