<?xml version="1.0" standalone="no"?>
<!DOCTYPE svg PUBLIC "-//W3C//DTD SVG 20010904//EN"
 "http://www.w3.org/TR/2001/REC-SVG-20010904/DTD/svg10.dtd">
<svg version="1.0" xmlns="http://www.w3.org/2000/svg"
 width="612.000000pt" height="612.000000pt" viewBox="0 0 612.000000 612.000000"
 preserveAspectRatio="xMidYMid meet">

<g transform="translate(0.000000,612.000000) scale(0.100000,-0.100000)"
fill="#000000" stroke="none">
<path d="M2311 3809 c-134 -12 -249 -35 -340 -69 -140 -51 -332 -142 -410
-194 l-76 -51 -218 -5 c-279 -6 -257 12 -257 -222 l0 -170 -30 -28 c-29 -27
-30 -30 -30 -126 0 -120 20 -169 89 -219 47 -35 322 -155 353 -155 11 0 26
-19 43 -53 89 -189 341 -275 526 -182 48 25 137 105 169 154 l15 22 920 -12
c816 -10 921 -13 929 -27 46 -79 166 -155 271 -172 132 -21 296 43 364 142
l24 35 116 7 c166 9 311 32 341 55 39 28 48 65 26 106 -18 34 -15 55 8 55 16
0 29 177 19 284 -5 71 -8 77 -47 115 -54 52 -147 103 -254 140 -140 48 -196
59 -407 81 -110 12 -258 27 -330 35 l-130 14 -145 81 c-276 156 -510 267 -630
300 -212 59 -615 85 -909 59z m329 -270 l0 -172 -114 7 c-229 14 -419 53 -545
111 -97 46 -115 45 -134 -8 -16 -45 124 -117 307 -158 217 -49 265 -51 1141
-58 811 -7 836 -8 1080 -35 312 -34 429 -61 565 -133 114 -59 112 -57 115
-181 1 -62 -2 -110 -8 -113 -12 -8 -38 -154 -31 -173 5 -14 -31 -20 -223 -35
l-82 -6 6 70 c10 117 -32 231 -116 314 -88 88 -219 132 -335 112 -133 -23
-249 -111 -304 -229 -22 -47 -27 -75 -30 -161 l-4 -104 -202 7 c-110 3 -501 9
-867 12 l-667 7 -4 91 c-5 114 -36 185 -115 264 -158 158 -412 155 -566 -7
-63 -67 -94 -126 -109 -212 -6 -35 -12 -65 -13 -67 -7 -8 -260 106 -289 130
-30 25 -34 34 -40 100 -6 56 -5 74 6 83 43 32 48 54 48 221 l0 161 98 6 c53 4
143 7 200 7 l103 0 57 39 c70 47 244 136 373 189 163 68 288 89 542 91 l157 1
0 -171z m310 156 c134 -15 240 -40 348 -81 75 -28 429 -208 452 -230 12 -12
-59 -14 -498 -14 l-512 0 0 163 c0 90 3 167 7 170 10 11 67 8 203 -8z m-1070
-732 c69 -22 141 -87 171 -155 34 -76 32 -174 -4 -244 -75 -146 -250 -204
-393 -131 -99 51 -146 128 -148 245 -1 65 3 86 27 134 67 136 206 197 347 151z
m2568 -12 c64 -33 99 -68 131 -133 44 -86 44 -170 0 -256 -48 -97 -128 -151
-235 -160 -82 -6 -150 17 -213 74 -173 155 -109 420 119 495 41 14 154 2 198
-20z"/>
</g>
</svg>
