<?xml version="1.0" standalone="no"?>
<!DOCTYPE svg PUBLIC "-//W3C//DTD SVG 20010904//EN"
 "http://www.w3.org/TR/2001/REC-SVG-20010904/DTD/svg10.dtd">
<svg version="1.0" xmlns="http://www.w3.org/2000/svg"
 width="360.000000pt" height="360.000000pt" viewBox="0 0 360.000000 360.000000"
 preserveAspectRatio="xMidYMid meet">
<metadata>
Created by potrace 1.16, written by Peter Selinger 2001-2019
</metadata>
<g transform="translate(0.000000,360.000000) scale(0.100000,-0.100000)"
fill="#000000" stroke="none">
<path d="M1275 2354 c-231 -34 -461 -102 -645 -191 -92 -45 -99 -47 -236 -58
-99 -8 -149 -16 -167 -28 -17 -11 -37 -46 -63 -114 -21 -54 -46 -111 -56 -128
-13 -23 -18 -51 -18 -115 0 -77 3 -88 33 -138 45 -74 70 -87 217 -106 69 -9
138 -19 153 -21 28 -5 28 -4 20 28 -39 153 56 334 199 376 182 55 354 -55 389
-249 10 -56 9 -75 -5 -122 -9 -31 -16 -59 -16 -62 0 -3 354 -6 786 -6 l786 0
-7 23 c-43 139 -15 266 77 354 107 103 299 103 406 0 93 -89 120 -213 77 -354
-9 -27 -14 -27 134 -9 99 13 118 18 140 40 23 24 26 34 29 130 4 95 2 109 -21
160 -53 115 -114 166 -252 210 -165 53 -343 81 -619 97 l-199 12 -151 77
c-190 96 -284 135 -405 167 -87 23 -118 26 -326 28 -126 2 -243 1 -260 -1z
m528 -104 c105 -23 198 -55 277 -95 48 -24 48 -25 37 -55 l-11 -30 -581 0
-580 0 -28 35 -28 36 77 35 c93 42 190 69 304 83 47 6 96 13 110 15 70 12 329
-3 423 -24z"/>
<path d="M2873 1829 c-79 -15 -148 -72 -183 -151 -47 -107 -33 -208 42 -293
55 -63 104 -85 192 -85 86 0 140 24 194 86 168 189 1 491 -245 443z"/>
<path d="M692 1804 c-94 -47 -145 -133 -145 -244 1 -37 8 -81 17 -103 23 -52
84 -117 131 -138 49 -23 161 -25 209 -5 51 21 111 81 136 134 28 58 31 158 6
215 -61 145 -219 208 -354 141z"/>
</g>
</svg>
