<?xml version="1.0" standalone="no"?>
<!DOCTYPE svg PUBLIC "-//W3C//DTD SVG 20010904//EN"
 "http://www.w3.org/TR/2001/REC-SVG-20010904/DTD/svg10.dtd">
<svg version="1.0" xmlns="http://www.w3.org/2000/svg"
 width="360.000000pt" height="360.000000pt" viewBox="0 0 360.000000 360.000000"
 preserveAspectRatio="xMidYMid meet">

<g transform="translate(0.000000,360.000000) scale(0.100000,-0.100000)"
fill="#000000" stroke="none">
<path d="M1698 2469 c-43 -22 -78 -81 -78 -129 0 -50 35 -107 80 -130 33 -17
59 -20 160 -20 l121 0 -3 -72 -3 -73 -90 -47 -90 -47 -620 -1 -621 0 -44 -22
c-82 -41 -113 -151 -71 -245 l20 -42 -65 -85 -65 -86 -92 0 c-76 0 -101 -4
-137 -22 -132 -67 -132 -249 0 -316 l44 -22 1536 0 c1660 0 1589 -2 1683 53
64 38 237 219 237 248 0 34 -373 401 -495 487 -123 87 -183 120 -444 239
l-226 104 -126 124 -126 125 -224 0 c-203 -1 -227 -3 -261 -21z m282 -129 l0
-30 -115 0 c-120 0 -136 6 -121 45 4 12 27 15 121 15 l115 0 0 -30z m232 -47
c43 -43 78 -81 78 -85 0 -7 -172 -98 -185 -98 -3 0 -5 59 -5 130 0 160 3 161
112 53z m370 -252 c301 -136 419 -203 528 -300 l45 -39 -74 24 c-163 54 -313
72 -459 54 l-99 -12 -83 61 c-45 34 -90 61 -101 61 -25 0 -59 -35 -59 -61 0
-20 64 -89 82 -89 4 0 8 -4 8 -8 0 -4 -54 -26 -120 -47 l-120 -39 -110 109
c-61 60 -110 113 -110 117 0 9 468 247 487 247 6 1 90 -34 185 -78z m-695
-323 c62 -62 113 -115 113 -119 0 -3 -30 -19 -67 -34 -38 -16 -98 -43 -135
-62 -67 -33 -69 -33 -209 -33 l-141 0 -437 116 c-330 88 -440 121 -453 136
-21 23 -24 78 -6 96 9 9 160 12 617 12 l606 0 112 -112z m1040 -73 c141 -33
350 -114 408 -159 18 -14 -43 -15 -645 -15 l-665 0 45 21 c92 41 435 150 519
163 98 16 243 12 338 -10z m-2164 -116 c106 -28 194 -53 196 -55 2 -2 -105 -4
-238 -4 l-242 0 42 55 c23 30 43 55 46 55 2 0 90 -23 196 -51z m2601 -210
c-16 -17 -49 -43 -74 -57 l-45 -27 -1542 -3 c-1534 -2 -1543 -2 -1563 18 -25
25 -26 54 0 80 20 20 33 20 1637 20 l1617 0 -30 -31z"/>
</g>
</svg>
