<?xml version="1.0" standalone="no"?>
<!DOCTYPE svg PUBLIC "-//W3C//DTD SVG 20010904//EN"
 "http://www.w3.org/TR/2001/REC-SVG-20010904/DTD/svg10.dtd">
<svg version="1.0" xmlns="http://www.w3.org/2000/svg"
 width="360.000000pt" height="360.000000pt" viewBox="0 0 360.000000 360.000000"
 preserveAspectRatio="xMidYMid meet">

<g transform="translate(0.000000,360.000000) scale(0.100000,-0.100000)"
fill="#000000" stroke="none">
<path d="M2380 3350 c-8 -5 -26 -10 -40 -10 -85 0 -145 -155 -96 -248 9 -18
14 -37 11 -42 -3 -6 -33 -10 -66 -10 -58 0 -60 -1 -75 -34 -14 -29 -15 -37 -3
-62 14 -29 16 -29 114 -34 l100 -5 17 -65 c9 -36 17 -85 17 -109 l1 -43 -56
51 c-62 57 -155 105 -236 122 -68 15 -201 6 -258 -17 -108 -43 -214 -130 -280
-232 l-33 -52 -206 0 c-234 0 -222 -3 -311 90 -29 30 -120 124 -202 208 l-150
152 -169 0 c-186 0 -222 -8 -266 -58 -25 -29 -53 -109 -53 -152 0 -69 31 -123
113 -202 45 -43 89 -78 98 -78 28 0 61 50 54 80 -3 14 -42 59 -86 101 -43 41
-79 83 -79 93 0 21 19 58 34 68 6 4 81 8 167 8 l156 0 86 -87 c47 -49 137
-140 199 -204 62 -64 126 -125 143 -135 25 -17 58 -20 270 -24 l240 -5 238
-118 c131 -64 242 -117 247 -117 28 0 3 -40 -48 -77 -89 -64 -162 -85 -327
-92 -129 -6 -144 -8 -187 -33 -51 -30 -120 -104 -140 -149 -7 -16 -15 -29 -18
-29 -3 0 -27 21 -55 47 -115 107 -272 252 -300 278 -16 14 -50 46 -75 69 -38
35 -128 118 -325 298 -53 49 -95 33 -95 -38 0 -40 4 -45 92 -125 50 -46 96
-88 103 -94 6 -5 44 -42 85 -80 83 -77 241 -222 308 -282 50 -45 49 -55 -15
-101 l-45 -33 -48 45 c-118 110 -212 150 -355 150 -118 -1 -170 -16 -265 -79
-129 -85 -217 -211 -277 -393 -22 -66 -26 -101 -30 -238 -5 -151 -3 -167 22
-259 43 -157 106 -270 208 -368 64 -61 171 -120 242 -133 22 -3 46 -11 52 -16
7 -6 30 -8 50 -5 268 37 453 205 543 497 21 67 24 95 25 261 l0 187 57 46 56
46 4 -303 c3 -294 4 -303 27 -357 32 -71 94 -146 142 -170 33 -17 59 -20 199
-20 l160 0 0 -26 0 -27 -181 5 -180 5 -20 -26 c-24 -30 -19 -75 11 -103 17
-16 40 -18 224 -18 l205 0 20 26 c16 21 21 41 21 90 l0 64 249 0 c213 0 252 2
265 16 29 28 29 59 -2 135 -61 154 -73 224 -73 410 0 150 3 180 25 263 24 87
62 186 71 186 2 0 20 -20 39 -46 l35 -45 -19 -53 c-54 -157 -52 -438 3 -591
68 -187 194 -335 339 -399 90 -40 219 -66 241 -48 6 5 30 13 52 17 51 9 137
49 197 92 111 80 216 256 259 433 44 178 26 393 -45 554 -25 56 -46 72 -76 56
-38 -21 -39 -51 -1 -166 105 -321 -15 -682 -268 -807 -61 -30 -73 -32 -166
-32 -90 0 -106 3 -160 29 -79 38 -123 74 -174 139 -57 75 -94 155 -121 267
-29 114 -30 205 -5 318 19 88 31 99 61 55 9 -15 26 -37 37 -48 56 -59 70 -85
64 -121 -10 -59 19 -198 54 -259 137 -242 411 -208 516 63 33 86 32 227 -3
320 -32 87 -96 162 -169 198 -46 22 -65 26 -116 22 l-60 -4 -42 50 c-23 28
-52 62 -64 75 -33 35 -29 49 25 74 39 18 65 21 157 22 101 0 114 -2 166 -29
31 -15 81 -50 110 -77 30 -27 60 -48 68 -47 8 2 23 15 34 30 37 49 2 107 -111
182 -97 64 -148 79 -267 80 -110 0 -164 -14 -248 -65 l-47 -29 -30 33 c-16 17
-30 35 -30 38 0 11 78 58 128 78 79 31 192 46 258 34 57 -10 58 -10 90 21 65
60 176 192 196 231 33 62 47 149 48 281 0 221 -36 309 -194 472 -161 167 -358
273 -561 303 -38 6 -84 15 -101 20 -40 12 -125 11 -144 -1z m290 -161 c19 -6
55 -18 80 -27 85 -28 174 -74 247 -128 68 -52 164 -144 171 -165 2 -5 -16 -28
-41 -52 -24 -24 -56 -70 -72 -103 -23 -50 -28 -73 -29 -149 -1 -114 27 -195
91 -258 24 -23 43 -46 43 -50 0 -5 -17 -28 -37 -53 l-37 -44 -96 0 c-153 0
-261 -36 -390 -131 -110 -81 -192 -180 -261 -320 -85 -168 -119 -321 -119
-529 0 -136 25 -312 50 -360 5 -10 10 -28 10 -39 0 -21 -2 -21 -392 -21 -445
0 -430 -2 -485 81 l-28 43 -3 384 c-3 432 0 455 64 530 57 67 80 75 239 82
231 11 312 52 526 262 140 138 149 148 182 215 66 131 72 163 72 366 l0 187
36 0 c31 0 39 5 52 32 9 18 15 35 13 38 -25 59 -26 60 -100 60 l-71 1 -28 62
c-28 64 -33 88 -19 102 10 11 291 -2 332 -16z m595 -472 c9 -45 2 -333 -8
-343 -17 -17 -75 25 -98 73 -49 98 -25 229 51 281 43 29 48 28 55 -11z m-1204
9 c32 -7 79 -25 105 -41 62 -35 164 -139 164 -166 0 -35 -62 -140 -119 -201
-29 -32 -57 -58 -61 -58 -5 0 -128 58 -275 130 -302 148 -286 129 -192 221 58
57 127 96 202 115 66 16 108 16 176 0z m564 -958 c33 -40 65 -80 72 -88 6 -8
36 -44 65 -80 30 -36 103 -126 163 -200 60 -74 117 -144 127 -154 24 -26 23
-78 -1 -100 -36 -33 -61 -17 -156 100 -49 61 -160 195 -245 298 -85 103 -156
192 -158 197 -3 6 66 99 73 99 1 0 28 -33 60 -72z m-1885 -2 c75 -39 130 -84
130 -107 0 -10 -4 -19 -8 -19 -5 0 -39 -24 -77 -53 l-68 -53 -45 23 c-62 32
-133 31 -198 -2 -81 -42 -124 -89 -165 -185 -21 -49 -24 -70 -23 -180 0 -114
3 -130 27 -180 35 -73 87 -134 145 -168 39 -22 59 -27 117 -27 58 0 78 5 116
27 88 52 160 164 173 270 7 57 8 58 84 120 42 34 80 66 83 71 9 13 19 -48 19
-117 -1 -98 -32 -225 -80 -321 -53 -107 -129 -186 -226 -236 -64 -32 -74 -34
-169 -34 -92 0 -105 3 -166 33 -180 87 -309 325 -309 567 1 280 153 524 370
596 14 5 68 7 120 6 81 -3 103 -7 150 -31z m473 -56 c18 -16 35 -30 40 -30 4
0 7 -10 7 -22 0 -17 -22 -39 -80 -83 -44 -33 -80 -63 -80 -67 0 -5 -6 -8 -14
-8 -8 0 -16 -3 -18 -7 -1 -5 -36 -34 -75 -65 -40 -32 -106 -84 -145 -115 -40
-32 -79 -62 -86 -68 -7 -5 -18 -14 -25 -20 -62 -51 -105 -83 -120 -88 -38 -14
-71 55 -51 107 5 14 136 122 294 241 36 27 70 54 76 60 6 5 48 39 94 75 46 36
97 77 114 92 17 15 32 28 34 28 2 0 17 -13 35 -30z m-628 -269 c3 -6 -14 -25
-39 -43 -69 -52 -91 -97 -91 -193 0 -71 3 -85 28 -123 53 -81 124 -103 191
-57 62 42 77 29 24 -22 -45 -42 -70 -53 -117 -53 -58 0 -91 15 -132 61 -39 43
-69 126 -69 189 0 51 30 136 63 175 44 54 126 92 142 66z m2543 -49 c37 -36
52 -60 65 -108 21 -75 21 -103 1 -175 -24 -87 -70 -134 -158 -163 -29 -10 -93
12 -129 43 -36 32 -80 112 -75 137 2 10 17 -4 41 -38 60 -81 80 -92 169 -89
17 1 44 15 67 36 31 28 43 49 57 101 17 62 17 68 0 122 -11 34 -36 79 -62 111
-24 29 -44 57 -44 62 0 20 23 7 68 -39z"/>
<path d="M1600 1111 c-14 -28 -12 -63 6 -89 14 -20 23 -22 109 -22 106 0 125
10 125 65 0 64 -1 65 -121 65 -97 0 -109 -2 -119 -19z"/>
</g>
</svg>
