<?xml version="1.0" standalone="no"?>
<!DOCTYPE svg PUBLIC "-//W3C//DTD SVG 20010904//EN"
 "http://www.w3.org/TR/2001/REC-SVG-20010904/DTD/svg10.dtd">
<svg version="1.0" xmlns="http://www.w3.org/2000/svg"
 width="360.000000pt" height="360.000000pt" viewBox="0 0 360.000000 360.000000"
 preserveAspectRatio="xMidYMid meet">

<g transform="translate(0.000000,360.000000) scale(0.100000,-0.100000)"
fill="#000000" stroke="none">
<path d="M672 2873 c-78 -27 -101 -61 -181 -268 -72 -186 -78 -217 -56 -267 6
-16 0 -18 -66 -18 -160 0 -191 -25 -295 -238 -85 -175 -87 -193 -24 -224 31
-16 71 -18 368 -18 296 0 337 -2 363 -17 29 -17 41 -37 229 -378 99 -178 108
-191 150 -212 l44 -23 646 0 c606 0 647 2 686 19 77 35 84 54 84 215 0 191 0
191 160 284 168 97 187 102 396 102 181 0 209 5 243 41 25 27 27 59 5 101 -11
22 -13 33 -5 41 7 7 11 63 11 149 0 163 -9 189 -73 219 -87 39 -174 13 -231
-69 -26 -36 -30 -52 -31 -104 l0 -60 -90 5 c-78 4 -104 11 -195 50 -127 55
-189 67 -340 67 l-116 0 -209 256 c-116 141 -227 271 -248 289 -21 18 -67 42
-102 54 -63 20 -81 21 -573 20 -428 0 -514 -3 -550 -16z m148 -110 c0 -5 -25
-77 -57 -160 l-56 -153 -57 0 c-31 0 -59 2 -62 5 -8 8 98 274 118 296 12 14
31 19 66 19 26 0 48 -3 48 -7z m946 -12 c33 -15 83 -71 256 -282 160 -195 214
-268 208 -279 -30 -54 -34 -56 -81 -35 -24 10 -45 20 -47 21 -2 1 5 18 15 39
l18 37 -28 24 c-33 28 -67 31 -95 7 -35 -30 -142 -195 -142 -219 0 -27 35 -54
68 -54 14 0 39 15 59 35 l35 35 49 -25 c27 -14 49 -27 49 -29 0 -2 -11 -28
-25 -58 -24 -51 -25 -61 -25 -250 0 -194 0 -198 -22 -212 -17 -11 -41 -13 -90
-9 l-68 6 0 36 c0 66 -20 114 -69 162 -56 57 -121 79 -230 79 l-76 0 -198 273
c-121 168 -210 280 -231 294 -52 34 -113 46 -190 39 l-68 -6 6 27 c3 16 34
103 68 196 l61 167 376 0 c344 0 379 -2 417 -19z m-1023 -501 c20 -49 37 -92
37 -95 0 -3 -28 -5 -62 -3 l-62 3 -37 93 -38 92 63 0 63 0 36 -90z m278 -8
c15 -15 113 -146 218 -292 125 -171 202 -269 219 -277 15 -7 72 -12 129 -13
98 0 104 -1 133 -27 23 -20 33 -40 37 -70 6 -42 5 -43 -25 -43 -36 0 -224 18
-271 26 -24 4 -49 21 -82 55 -33 34 -55 49 -74 49 -34 0 -77 -42 -68 -67 21
-58 98 -125 164 -143 91 -25 581 -60 830 -60 l249 0 0 -25 0 -25 -627 2 -626
3 -139 250 c-76 137 -150 264 -163 281 -14 18 -51 45 -82 61 l-58 28 -284 5
-283 5 48 35 49 35 252 3 c281 3 322 -2 362 -50 15 -16 36 -41 48 -54 41 -44
123 -23 123 32 0 33 -71 116 -122 144 -45 23 -58 46 -86 147 -2 6 7 13 20 16
40 8 82 -4 109 -31z m2269 -44 l0 -81 -24 23 c-14 12 -28 35 -31 51 -7 32 18
89 40 89 12 0 15 -16 15 -82z m-2790 -19 c7 -11 10 -22 8 -24 -6 -5 -248 -10
-248 -5 0 3 7 16 16 28 14 20 23 22 114 22 90 0 100 -2 110 -21z m2262 -83
c117 -51 197 -66 361 -66 88 0 89 0 123 -34 19 -19 34 -39 34 -46 0 -8 -69
-11 -272 -8 l-273 3 -75 37 c-121 61 -230 74 -276 35 -54 -47 -10 -97 84 -97
35 0 68 -10 127 -40 44 -22 88 -40 98 -40 30 0 19 -14 -36 -43 -121 -63 -167
-126 -175 -239 l-5 -68 -129 0 -129 0 3 213 3 212 69 118 69 119 146 -5 146
-4 107 -47z"/>
<path d="M1122 1814 c-45 -31 -13 -94 48 -94 35 0 70 27 70 54 0 49 -70 74
-118 40z"/>
<path d="M343 1766 c-120 -29 -236 -114 -284 -207 -26 -52 -37 -164 -20 -225
27 -99 142 -209 261 -247 174 -57 379 -15 499 102 78 76 96 118 96 231 0 113
-18 155 -96 231 -110 107 -295 154 -456 115z m251 -126 c101 -38 166 -124 166
-220 0 -96 -65 -182 -168 -220 -77 -29 -206 -25 -273 7 -209 104 -193 356 28
438 59 21 182 19 247 -5z"/>
<path d="M390 1554 c-79 -34 -121 -105 -100 -169 20 -60 103 -115 175 -115 72
0 155 55 175 115 38 115 -123 224 -250 169z m110 -119 c16 -20 -3 -45 -35 -45
-32 0 -51 25 -35 45 7 8 23 15 35 15 12 0 28 -7 35 -15z"/>
<path d="M3051 1769 c-121 -24 -249 -117 -298 -218 -23 -46 -28 -69 -28 -131
0 -94 32 -166 104 -233 218 -204 615 -149 738 102 40 80 40 182 0 262 -81 166
-303 260 -516 218z m265 -142 c84 -43 144 -129 144 -207 0 -77 -60 -164 -144
-208 -46 -24 -61 -27 -156 -27 -89 0 -111 3 -146 22 -129 69 -182 182 -135
289 25 56 51 86 100 116 63 40 102 48 196 45 74 -3 99 -8 141 -30z"/>
<path d="M3091 1557 c-19 -6 -49 -25 -67 -43 -57 -57 -57 -131 0 -187 73 -73
196 -74 274 -2 35 32 37 37 37 95 0 58 -2 63 -37 95 -55 51 -131 66 -207 42z
m104 -137 c0 -19 -6 -26 -26 -28 -14 -2 -31 4 -39 12 -18 22 5 48 39 44 20 -2
26 -9 26 -28z"/>
</g>
</svg>
